<?xml version="1.0" encoding="UTF-8" standalone="no"?>
<!-- Created with Inkscape (http://www.inkscape.org/) -->

<svg
   xmlns:dc="http://purl.org/dc/elements/1.1/"
   xmlns:cc="http://creativecommons.org/ns#"
   xmlns:rdf="http://www.w3.org/1999/02/22-rdf-syntax-ns#"
   xmlns:svg="http://www.w3.org/2000/svg"
   xmlns="http://www.w3.org/2000/svg"
   xmlns:sodipodi="http://sodipodi.sourceforge.net/DTD/sodipodi-0.dtd"
   xmlns:inkscape="http://www.inkscape.org/namespaces/inkscape"
   width="74.517952mm"
   height="29.677279mm"
   viewBox="0 0 264.03999 105.15571"
   id="svg3659"
   version="1.1"
   inkscape:version="0.91 r13725"
   sodipodi:docname="logo.svg">
  <defs
     id="defs3661">
    <clipPath
       id="clipPath5476"
       clipPathUnits="userSpaceOnUse">
      <path
         inkscape:connector-curvature="0"
         id="path5478"
         d="M 0,0 337,0 337,140 0,140 0,0 Z" />
    </clipPath>
  </defs>
  <sodipodi:namedview
     id="base"
     pagecolor="#ffffff"
     bordercolor="#666666"
     borderopacity="1.0"
     inkscape:pageopacity="0.0"
     inkscape:pageshadow="2"
     inkscape:zoom="1.979899"
     inkscape:cx="30.547045"
     inkscape:cy="-2.1355262"
     inkscape:document-units="px"
     inkscape:current-layer="layer1"
     showgrid="false"
     inkscape:window-width="956"
     inkscape:window-height="1153"
     inkscape:window-x="960"
     inkscape:window-y="22"
     inkscape:window-maximized="0"
     fit-margin-top="0"
     fit-margin-left="0"
     fit-margin-right="0"
     fit-margin-bottom="0" />
  <metadata
     id="metadata3664">
    <rdf:RDF>
      <cc:Work
         rdf:about="">
        <dc:format>image/svg+xml</dc:format>
        <dc:type
           rdf:resource="http://purl.org/dc/dcmitype/StillImage" />
        <dc:title />
      </cc:Work>
    </rdf:RDF>
  </metadata>
  <g
     inkscape:label="Layer 1"
     inkscape:groupmode="layer"
     id="layer1"
     transform="translate(-185.12287,-219.78435)">
    <g
       id="g4399"
       transform="translate(130.96441,37.857139)"
       inkscape:export-xdpi="170.42999"
       inkscape:export-ydpi="170.42999">
      <g
         transform="matrix(0.8712444,0,0,-0.8712444,39.325681,294.4885)"
         id="g5470">
        <g
           id="g5472">
          <g
             clip-path="url(#clipPath5476)"
             id="g5474">
            <g
               transform="translate(162.7484,8.5)"
               id="g5480">
              <path
                 inkscape:connector-curvature="0"
                 id="path5482"
                 style="fill:#ffffff;fill-opacity:1;fill-rule:nonzero;stroke:none"
                 d="m 0,0 c -83.078,0 -111.172,1.848 -126.351,13.921 -17.275,13.742 -22.825,55.384 -17.336,75.94 2.877,10.778 10.478,18.443 19.959,21.38 9.48,2.937 56.45,9.455 123.811,9.455 67.36,0 134.983,-8.413 145.097,-14.208 9.036,-5.177 12.511,-16.703 12.129,-35.303 C 156.863,49.472 151.604,23.123 138.71,14.819 120.106,2.838 65.114,0 0,0" />
            </g>
            <g
               transform="translate(84.9085,72.8217)"
               id="g5484">
              <path
                 inkscape:connector-curvature="0"
                 id="path5486"
                 style="fill:#304488;fill-opacity:1;fill-rule:nonzero;stroke:none"
                 d="m 0,0 c 0.168,0.38 0.71,0.635 1.17,0.635 0.651,0 0.801,-0.37 0.761,-0.654 C 1.885,-0.358 1.589,-0.585 1.186,-0.645 1.15,-0.651 1.112,-0.653 1.074,-0.653 c -0.284,0 -0.575,0.141 -0.499,0.241 0.037,0.049 0.134,0.177 0.06,0.331 C 0.578,0.037 0.451,0.09 0.313,0.09 0.205,0.09 0.092,0.058 0,0 M 8.018,4.284 C 7.349,4.284 6.771,3.803 6.083,2.976 5.896,2.753 5.696,2.561 5.548,2.561 c -0.093,0 -0.165,0.078 -0.199,0.272 -0.056,0.324 0.19,0.981 -0.088,0.981 -0.006,0 -0.013,0 -0.02,-10e-4 C 4.524,3.738 4.058,3.327 3.652,2.794 3.339,2.382 3.316,2.166 2.952,2.155 2.227,2.122 1.889,2.092 1.33,1.958 0.769,1.826 0.295,1.616 -0.041,1.409 -0.462,1.146 -0.778,0.752 -1.767,0.744 -3.35,0.73 -5.36,0.694 -6.14,0.545 -6.942,0.393 -7.055,-0.116 -6.63,-0.828 c 0.499,-0.832 0.647,-2.621 1.655,-2.876 0.26,-0.553 0.439,-0.978 0.688,-0.978 0.007,0 0.014,0.001 0.022,0.001 0.089,0.019 0.18,0.295 0.246,0.55 0.139,0.558 0.68,0.582 1.037,0.6 0.178,0.01 0.348,0.015 0.511,0.015 0.663,0 1.209,-0.088 1.697,-0.362 0.417,-0.235 0.621,-0.653 0.542,-0.815 -0.043,-0.089 -0.102,-0.113 -0.207,-0.113 -0.063,0 -0.142,0.009 -0.245,0.017 -0.103,0.009 -0.23,0.018 -0.387,0.018 -0.276,0 -0.646,-0.027 -1.147,-0.129 -0.873,-0.176 -1.409,-0.645 -2.534,-0.645 -1.678,0 -2.5,1.136 -2.795,2.151 -0.101,0.346 -0.183,0.675 -0.414,0.675 -0.108,0 -0.25,-0.073 -0.442,-0.252 -0.769,-0.72 -0.826,-2.089 -0.03,-2.925 0.527,-0.555 1.266,-0.843 2.156,-0.925 0.177,-0.014 0.469,-0.025 0.774,-0.025 0.164,0 0.332,0.003 0.488,0.011 0,0 -0.127,-0.348 0.064,-0.656 0.133,-0.213 0.45,-0.393 0.936,-0.393 0.216,0 0.464,0.035 0.745,0.119 0.78,0.232 1.495,0.455 2.136,0.455 0.435,0 0.836,-0.103 1.2,-0.375 0.164,-0.122 0.366,-0.348 0.366,-0.494 0,-0.268 -0.982,-1.035 -3.737,-1.776 -3.387,-0.912 -4.182,-3.18 -3.838,-4.42 l 0.189,-0.229 0.003,0 c 0.1,0 0.612,0.3 0.906,0.353 0.06,0.01 0.111,0.015 0.154,0.015 0.375,0 0.172,-0.385 0.107,-0.858 -0.262,-1.881 2.411,-4.252 4.771,-5.887 1.307,-0.904 2.01,-1.213 2.34,-1.213 0.337,0 1.036,0.25 2.339,1.213 3.68,2.72 6.119,6.527 5.724,8.555 -0.225,1.151 -0.824,1.852 -0.538,2.037 0.055,0.035 0.119,0.049 0.19,0.049 0.162,0 0.357,-0.075 0.533,-0.151 0.177,-0.076 0.336,-0.151 0.426,-0.151 0.02,0 0.037,0.003 0.05,0.011 0.369,0.23 0.538,2.36 -0.143,4.588 -0.647,2.116 -1.373,2.961 -1.806,4.693 -0.057,0.227 -0.194,0.913 -0.135,1.095 0.058,0.183 0.201,0.549 0.305,0.853 0.54,1.566 0.292,3.207 0.119,3.579 L 8.235,4.267 C 8.162,4.278 8.089,4.284 8.018,4.284" />
            </g>
            <g
               transform="translate(55.1839,68.3748)"
               id="g5488">
              <path
                 inkscape:connector-curvature="0"
                 id="path5490"
                 style="fill:#375aa7;fill-opacity:1;fill-rule:nonzero;stroke:none"
                 d="m 0,0 c -0.352,0 -0.941,-0.727 -1.453,-1.799 -0.601,-1.259 -0.93,-2.451 -0.93,-4.716 0,-5.744 4.744,-11.597 11.55,-11.597 0.25,0 0.504,0.008 0.76,0.024 6.295,0.398 9.871,5.165 9.871,10.024 0,2.293 -1.317,4.88 -4.029,4.88 -0.057,0 -0.114,-0.002 -0.172,-0.004 -3.209,-0.126 -3.719,-2.227 -3.719,-3.387 0,-2.862 1.23,-4.388 1.07,-5.103 -0.108,-0.483 -1.279,-0.72 -2.285,-0.72 -0.035,0 -0.07,10e-4 -0.104,10e-4 C 7.054,-12.34 1.905,-8.103 0.508,-0.805 0.452,-0.507 0.348,-0.001 0.001,0 l 0,0" />
            </g>
            <g
               transform="translate(64.5454,89.752)"
               id="g5492">
              <path
                 inkscape:connector-curvature="0"
                 id="path5494"
                 style="fill:#4575be;fill-opacity:1;fill-rule:nonzero;stroke:none"
                 d="m 0,0 c -7.194,0 -11.745,-5.471 -11.745,-11.561 0,-1.594 0.445,-3.654 0.935,-4.812 0.455,-1.074 0.958,-2.029 1.358,-2.029 0.461,0 0.498,0.65 0.582,1.275 0.576,4.263 2.981,7.431 5.652,8.949 2.101,1.193 4.193,1.575 6.128,1.575 1.986,0 3.808,-0.402 5.306,-0.74 0.129,-0.029 0.252,-0.045 0.363,-0.045 0.267,0 0.473,0.087 0.569,0.276 0.112,0.22 0.033,0.47 -0.314,0.835 C 7.443,-4.812 4.243,-1.629 3.842,-1.294 2.868,-0.482 1.259,0 0,0" />
            </g>
            <g
               transform="translate(93.955,104.485)"
               id="g5496">
              <path
                 inkscape:connector-curvature="0"
                 id="path5498"
                 style="fill:#4575be;fill-opacity:1;fill-rule:nonzero;stroke:none"
                 d="m 0,0 c -0.348,0 -0.685,-0.016 -1.004,-0.043 -2.208,-0.19 -3.417,-0.711 -4.242,-1.094 -0.442,-0.205 -0.808,-0.459 -0.808,-0.705 0,-0.222 0.475,-0.49 0.695,-0.657 0.878,-0.667 1.564,-1.217 3.473,-3.215 1.47,-1.54 3.351,-4.19 4.137,-6.006 0.611,-1.411 0.921,-4.419 0.616,-7.477 -0.045,-0.461 0,-0.764 0.202,-0.918 0.061,-0.046 0.131,-0.065 0.205,-0.065 0.247,0 0.539,0.213 0.686,0.346 0.394,0.354 3.389,3.334 4.787,4.862 0.945,1.03 1.262,2.817 1.262,4.803 0,1.669 -0.223,4.135 -1.818,6.173 C 5.709,-0.823 2.519,0 0,0" />
            </g>
            <g
               transform="translate(78.5149,104.485)"
               id="g5500">
              <path
                 inkscape:connector-curvature="0"
                 id="path5502"
                 style="fill:#375aa7;fill-opacity:1;fill-rule:nonzero;stroke:none"
                 d="m 0,0 c -2.519,0 -5.709,-0.823 -8.191,-3.996 -1.595,-2.038 -1.818,-4.504 -1.818,-6.173 0,-1.986 0.317,-3.773 1.262,-4.803 1.398,-1.528 4.393,-4.508 4.787,-4.862 0.147,-0.133 0.439,-0.346 0.686,-0.346 0.074,0 0.144,0.019 0.205,0.065 0.202,0.154 0.247,0.457 0.202,0.918 -0.305,3.058 0.005,6.066 0.616,7.477 0.786,1.816 2.667,4.466 4.137,6.006 1.908,1.998 2.595,2.548 3.473,3.215 0.22,0.167 0.695,0.435 0.695,0.657 0,0.246 -0.366,0.5 -0.808,0.705 C 4.421,-0.754 3.212,-0.233 1.004,-0.043 0.684,-0.016 0.348,0 0,0" />
            </g>
            <g
               transform="translate(67.3986,81.4849)"
               id="g5504">
              <path
                 inkscape:connector-curvature="0"
                 id="path5506"
                 style="fill:#f9a70d;fill-opacity:1;fill-rule:nonzero;stroke:none"
                 d="m 0,0 c -5.423,0 -9.943,-3.822 -10.247,-10.681 -0.293,-6.613 4.712,-12.575 7.958,-13.225 0.205,-0.041 0.376,-0.06 0.517,-0.06 0.658,0 0.65,0.428 0.428,1.07 -0.371,1.073 -1.208,3.841 0.156,5.978 1.056,1.655 2.561,2.081 3.72,2.189 0.338,0.031 0.79,0.057 1.008,0.083 0.854,0.101 1.087,0.348 1.087,0.926 l 0,4.794 c 0,1.218 0.231,1.565 0.821,2.154 0.66,0.66 2.302,2.303 3.125,3.125 0.629,0.629 0.483,1.124 0.04,1.466 C 7.218,-1.102 3.198,0 0,0" />
            </g>
            <g
               transform="translate(117.2859,68.3748)"
               id="g5508">
              <path
                 inkscape:connector-curvature="0"
                 id="path5510"
                 style="fill:#4575be;fill-opacity:1;fill-rule:nonzero;stroke:none"
                 d="m 0,0 -0.001,0 c -0.347,-0.001 -0.451,-0.507 -0.507,-0.805 -1.397,-7.298 -6.545,-11.535 -10.05,-11.592 -0.035,0 -0.07,-10e-4 -0.104,-10e-4 -1.007,0 -2.178,0.237 -2.286,0.72 -0.159,0.715 1.07,2.241 1.07,5.103 0,1.16 -0.51,3.261 -3.719,3.387 -0.058,0.002 -0.115,0.004 -0.172,0.004 -2.712,0 -4.029,-2.587 -4.029,-4.88 0,-4.859 3.577,-9.626 9.871,-10.024 0.256,-0.016 0.51,-0.024 0.76,-0.024 6.806,0 11.551,5.853 11.551,11.597 0,2.265 -0.329,3.457 -0.931,4.716 C 0.941,-0.727 0.352,0 0,0" />
            </g>
            <g
               transform="translate(107.9243,89.752)"
               id="g5512">
              <path
                 inkscape:connector-curvature="0"
                 id="path5514"
                 style="fill:#375aa7;fill-opacity:1;fill-rule:nonzero;stroke:none"
                 d="m 0,0 c -1.259,0 -2.868,-0.482 -3.842,-1.294 -0.401,-0.335 -3.601,-3.518 -4.992,-4.983 -0.347,-0.365 -0.426,-0.615 -0.314,-0.835 0.097,-0.189 0.302,-0.276 0.569,-0.276 0.112,0 0.234,0.016 0.363,0.045 1.499,0.338 3.32,0.74 5.306,0.74 1.935,0 4.027,-0.382 6.129,-1.575 2.671,-1.518 5.076,-4.686 5.651,-8.949 0.084,-0.625 0.121,-1.275 0.582,-1.275 0.4,0 0.903,0.955 1.358,2.029 0.49,1.158 0.936,3.218 0.936,4.812 C 11.746,-5.471 7.194,0 0,0" />
            </g>
            <g
               transform="translate(105.0714,81.4849)"
               id="g5516">
              <path
                 inkscape:connector-curvature="0"
                 id="path5518"
                 style="fill:#f9a70d;fill-opacity:1;fill-rule:nonzero;stroke:none"
                 d="m 0,0 c -3.198,0 -7.218,-1.102 -8.613,-2.181 -0.443,-0.342 -0.589,-0.837 0.04,-1.466 0.823,-0.822 2.465,-2.465 3.125,-3.125 0.589,-0.589 0.821,-0.936 0.821,-2.154 l 0,-4.794 c 0,-0.578 0.233,-0.825 1.087,-0.926 0.218,-0.026 0.67,-0.052 1.008,-0.083 1.159,-0.108 2.664,-0.534 3.72,-2.189 1.363,-2.137 0.527,-4.905 0.156,-5.978 -0.222,-0.642 -0.23,-1.07 0.428,-1.07 0.141,0 0.312,0.019 0.517,0.06 3.246,0.65 8.251,6.612 7.958,13.225 C 9.943,-3.822 5.422,0 0,0" />
            </g>
            <g
               transform="translate(96.7126,51.9818)"
               id="g5520">
              <path
                 inkscape:connector-curvature="0"
                 id="path5522"
                 style="fill:#f9a70d;fill-opacity:1;fill-rule:nonzero;stroke:none"
                 d="m 0,0 c -0.358,0 -0.699,-0.177 -1.016,-0.502 -1.351,-1.382 -2.224,-2.201 -3.842,-3.42 -0.819,-0.616 -0.843,-1.422 -0.315,-2.134 0.506,-0.683 1.377,-1.507 2.166,-2.246 0.924,-0.866 2.606,-1.49 4.434,-1.49 0.452,0 0.914,0.038 1.374,0.121 3.583,0.639 4.766,3.504 4.69,5.978 -0.018,0.621 -0.276,0.983 -0.545,1.114 -0.195,0.095 -0.373,0.123 -0.556,0.123 -0.128,0 -0.258,-0.014 -0.4,-0.027 -0.141,-0.013 -0.293,-0.026 -0.465,-0.026 -0.082,0 -0.169,0.003 -0.261,0.01 C 3.392,-2.344 2.111,-1.523 1.07,-0.518 0.703,-0.164 0.344,0 0,0" />
            </g>
            <g
               transform="translate(75.7573,51.9818)"
               id="g5524">
              <path
                 inkscape:connector-curvature="0"
                 id="path5526"
                 style="fill:#f9a70d;fill-opacity:1;fill-rule:nonzero;stroke:none"
                 d="m 0,0 c -0.344,0 -0.703,-0.164 -1.07,-0.518 -1.041,-1.005 -2.322,-1.826 -4.194,-1.981 -0.092,-0.007 -0.179,-0.01 -0.261,-0.01 -0.172,0 -0.324,0.013 -0.465,0.026 -0.142,0.013 -0.272,0.027 -0.4,0.027 -0.183,0 -0.361,-0.028 -0.555,-0.123 -0.27,-0.131 -0.528,-0.493 -0.546,-1.114 -0.076,-2.474 1.107,-5.339 4.69,-5.978 0.461,-0.083 0.922,-0.121 1.374,-0.121 1.827,0 3.51,0.624 4.434,1.49 0.789,0.739 1.66,1.563 2.166,2.246 0.528,0.712 0.504,1.518 -0.315,2.134 -1.617,1.219 -2.491,2.038 -3.842,3.42 C 0.699,-0.177 0.358,0 0,0" />
            </g>
            <g
               transform="translate(86.2349,101.2376)"
               id="g5528">
              <path
                 inkscape:connector-curvature="0"
                 id="path5530"
                 style="fill:#f79210;fill-opacity:1;fill-rule:nonzero;stroke:none"
                 d="m 0,0 c -1.019,0 -2.691,-1.562 -4.608,-3.576 -1.883,-1.977 -3.815,-4.888 -4.124,-6.427 -0.309,-1.539 -0.726,-4.754 0.388,-9.408 0.316,-1.318 1.045,-1.444 1.869,-1.444 l 12.949,0 c 0.824,0 1.554,0.126 1.869,1.444 1.114,4.654 0.697,7.869 0.388,9.408 -0.307,1.539 -2.24,4.45 -4.123,6.427 C 2.69,-1.562 1.017,0 0,0" />
            </g>
            <g
               transform="translate(88.723,45.878)"
               id="g5532">
              <path
                 inkscape:connector-curvature="0"
                 id="path5534"
                 style="fill:#f79210;fill-opacity:1;fill-rule:nonzero;stroke:none"
                 d="m 0,0 c -0.069,0 -0.141,-0.005 -0.218,-0.015 -0.624,-0.081 -1.347,-0.644 -2.27,-0.644 -0.923,0 -1.646,0.563 -2.271,0.644 C -4.835,-0.005 -4.907,0 -4.976,0 c -0.412,0 -0.721,-0.18 -1.136,-0.595 -0.701,-0.703 -1.712,-1.802 -2.383,-2.626 -0.484,-0.594 -1.141,-1.585 -0.239,-3.896 1.107,-2.839 5.082,-6.581 6.246,-6.581 1.164,0 5.139,3.742 6.246,6.581 0.902,2.311 0.245,3.302 -0.239,3.896 C 2.847,-2.397 1.837,-1.298 1.135,-0.595 0.721,-0.18 0.412,0 0,0" />
            </g>
            <g
               transform="translate(146.776,88.7557)"
               id="g5536">
              <path
                 inkscape:connector-curvature="0"
                 id="path5538"
                 style="fill:#304488;fill-opacity:1;fill-rule:nonzero;stroke:none"
                 d="m 0,0 c -3.619,0 -4.192,-1.433 -4.192,-2.293 0,-4.119 10.497,-2.937 10.497,-10.818 0,-5.23 -4.514,-7.738 -10.317,-7.738 -5.087,0 -6.377,2.508 -6.377,4.729 0,0.43 0,0.752 0.108,1.182 0.107,0.359 0.358,0.538 0.859,0.286 1.863,-0.895 3.511,-1.253 5.195,-1.253 2.651,0 4.729,0.752 4.729,2.579 0,4.155 -10.497,3.295 -10.497,10.998 0,4.872 3.475,7.272 10.318,7.272 C 1.469,4.944 3.296,4.8 4.55,4.478 4.871,4.406 5.015,4.156 4.979,3.869 L 4.406,0.036 C 4.334,-0.394 4.119,-0.43 3.725,-0.358 2.472,-0.107 1.003,0 0,0" />
            </g>
            <g
               transform="translate(197.7279,93.5201)"
               id="g5540">
              <path
                 inkscape:connector-curvature="0"
                 id="path5542"
                 style="fill:#304488;fill-opacity:1;fill-rule:nonzero;stroke:none"
                 d="m 0,0 c 3.583,0 4.442,-1.218 5.195,-3.295 l 6.447,-18.091 c 0.681,-1.863 1.219,-2.687 1.577,-3.188 0.107,-0.144 0.107,-0.358 -0.036,-0.466 -0.466,-0.358 -1.361,-0.752 -2.83,-0.752 -2.472,0 -3.94,0.895 -4.657,3.009 l -0.788,2.364 c -0.108,0.358 -0.287,0.466 -0.645,0.466 l -9.421,0 c -0.323,0 -0.466,-0.144 -0.573,-0.466 l -1.47,-4.334 c -0.107,-0.287 -0.286,-0.502 -0.716,-0.502 l -4.764,0 c -0.43,0 -0.717,0.394 -0.573,0.824 l 6.913,19.523 c -1.898,0.287 -2.758,1.469 -2.973,4.12 -0.036,0.43 0.251,0.609 0.681,0.609 C -5.66,-0.179 -2.973,0 0,0 m 3.332,-14.544 -2.83,8.992 c -0.179,0.573 -0.43,0.823 -0.896,0.823 l -0.466,0 -3.152,-9.85 c -0.072,-0.252 0.036,-0.395 0.322,-0.395 l 6.735,0 c 0.287,0 0.359,0.143 0.287,0.43" />
            </g>
            <g
               transform="translate(212.5771,92.7323)"
               id="g5544">
              <path
                 inkscape:connector-curvature="0"
                 id="path5546"
                 style="fill:#304488;fill-opacity:1;fill-rule:nonzero;stroke:none"
                 d="m 0,0 c -0.036,0.43 0.25,0.609 0.681,0.609 1.899,0.035 3.51,0.179 4.943,0.179 1.756,0 2.974,-0.967 2.974,-2.974 l 0,-12.538 c 0,-3.367 1.719,-5.122 4.764,-5.122 3.045,0 4.765,1.755 4.765,5.122 l 0,14.795 c 0,0.287 0.25,0.538 0.537,0.538 l 4.55,0 c 0.286,0 0.537,-0.251 0.537,-0.538 l 0,-15.976 c 0,-5.697 -3.833,-8.885 -10.389,-8.885 -6.842,0 -10.389,2.902 -10.389,8.885 l 0,11.785 C 1.075,-3.833 0.215,-2.651 0,0" />
            </g>
            <g
               transform="translate(253.6759,88.0036)"
               id="g5548">
              <path
                 inkscape:connector-curvature="0"
                 id="path5550"
                 style="fill:#304488;fill-opacity:1;fill-rule:nonzero;stroke:none"
                 d="m 0,0 0,-11.857 c 0,-2.651 0.573,-3.296 2.078,-3.511 0.394,-0.072 1.075,-0.072 1.468,-0.036 0.538,0.072 0.717,-0.251 0.61,-0.896 -0.287,-1.754 -1.971,-3.797 -4.908,-3.797 -3.475,0 -4.872,1.827 -4.872,6.52 l 0,13.577 c 0,0.215 -0.144,0.358 -0.359,0.358 l -5.731,0 c -0.287,0 -0.538,0.251 -0.538,0.537 l 0,3.905 c 0,0.287 0.251,0.537 0.538,0.537 l 17.804,0 c 0.286,0 0.538,-0.25 0.538,-0.537 l 0,-3.905 C 6.628,0.609 6.376,0.358 6.09,0.358 l -5.732,0 C 0.143,0.358 0,0.215 0,0" />
            </g>
            <g
               transform="translate(162.9451,93.5201)"
               id="g5552">
              <path
                 inkscape:connector-curvature="0"
                 id="path5554"
                 style="fill:#304488;fill-opacity:1;fill-rule:nonzero;stroke:none"
                 d="m 0,0 c 1.684,0 2.938,-1.254 2.938,-2.937 l 0,-8.562 7.845,10.604 c 0.322,0.466 0.824,0.716 1.504,0.716 l 4.407,0 c 0.644,0 0.967,-0.465 0.573,-1.003 L 9.206,-11.821 c -0.107,-0.144 -0.107,-0.287 0,-0.43 3.224,-4.156 7.523,-10.245 9.207,-11.822 0.322,-0.286 0.215,-0.537 0,-0.716 -0.538,-0.43 -1.54,-1.003 -2.902,-1.003 -2.686,0 -4.119,1.11 -5.624,3.259 l -6.949,9.887 0,-12.072 c 0,-0.286 -0.251,-0.537 -0.538,-0.537 l -4.549,0 c -0.287,0 -0.538,0.251 -0.538,0.537 l 0,19.81 c -1.898,0.287 -2.758,1.469 -2.973,4.12 -0.036,0.43 0.251,0.609 0.681,0.609 C -3.224,-0.179 -1.755,0 0,0" />
            </g>
          </g>
        </g>
      </g>
      <g
         transform="matrix(0.96726824,0,0,0.96726824,26.306576,164.90614)"
         id="g5558">
        <path
           d="m 143.946,93.3248 c -0.986,0.409 -2.0336,0.612 -3.145,0.612 -1.768,0 -3.0791,-0.5026 -3.9355,-1.512 -0.8553,-1.0083 -1.2835,-2.3683 -1.2835,-4.081 0,-1.8466 0.4707,-3.3278 1.411,-4.4445 0.9414,-1.1156 2.3407,-1.6745 4.199,-1.6755 0.9414,0.001 1.819,0.12 2.635,0.357 l -0.255,1.428 c -0.8606,-0.2933 -1.7106,-0.441 -2.55,-0.442 -1.2463,0.001 -2.1813,0.4207 -2.805,1.259 -0.6226,0.8394 -0.935,1.9264 -0.935,3.263 0,2.9707 1.2984,4.455 3.893,4.454 0.9074,0.001 1.7457,-0.1913 2.516,-0.578 l 0.255,1.36 z m -0.544,-13.26 -2.669,1.428 -2.72,-1.377 0.459,-0.884 2.312,1.02 2.21,-1.02 0.408,0.833 z"
           style="fill:#324986;fill-opacity:1;fill-rule:evenodd;stroke:none"
           id="path5560"
           inkscape:connector-curvature="0" />
        <path
           d="m 150.697,93.7498 c -0.5206,0.1254 -1.088,0.187 -1.7,0.187 -0.85,0 -1.4386,-0.1881 -1.768,-0.5685 -0.3283,-0.3793 -0.493,-1.0338 -0.493,-1.9645 l 0,-4.862 -1.734,0 0,-1.19 1.734,0 0,-2.737 1.53,-0.425 0,3.162 2.363,0 0,1.19 -2.363,0 0,4.318 c 0,0.6927 0.085,1.1602 0.255,1.4035 0.17,0.2444 0.4877,0.3655 0.952,0.3645 0.3857,0.001 0.7427,-0.0446 1.071,-0.136 l 0.153,1.258 z"
           style="fill:#324986;fill-opacity:1;fill-rule:evenodd;stroke:none"
           id="path5562"
           inkscape:connector-curvature="0" />
        <path
           d="m 159.522,85.3518 -3.468,9.163 c -0.51,1.3494 -1.0593,2.2897 -1.649,2.822 -0.5886,0.5334 -1.3653,0.799 -2.329,0.799 -0.2943,0 -0.6226,-0.034 -0.986,-0.102 l 0.17,-1.36 c 0.2954,0.0914 0.6354,0.136 1.02,0.136 0.476,0 0.8925,-0.153 1.2495,-0.459 0.357,-0.306 0.6832,-0.85 0.9775,-1.632 l 0.34,-0.918 -3.196,-8.449 1.734,0 1.598,4.386 c 0.1817,0.511 0.3974,1.208 0.646,2.091 l 0.034,0 c 0.1477,-0.577 0.425,-1.444 0.833,-2.601 l 1.36,-3.876 1.666,0 z"
           style="fill:#324986;fill-opacity:1;fill-rule:evenodd;stroke:none"
           id="path5564"
           inkscape:connector-curvature="0" />
        <path
           d="m 166.103,85.2158 -0.068,1.496 c -0.918,-0.169 -1.6001,0.0605 -2.0485,0.6895 -0.4473,0.629 -0.6715,1.6289 -0.6715,2.9995 l 0,3.4 -1.53,0 0,-7.242 c -0.4643,-0.0786 -0.9573,-0.135 -1.479,-0.17 l 0,-0.918 c 1.0657,-0.1233 2.0517,-0.1636 2.958,-0.119 0,0.7034 -0.0616,1.3727 -0.187,2.006 l 0.034,0 c 0.204,-0.6906 0.5504,-1.2421 1.037,-1.6565 0.4877,-0.4133 1.139,-0.5748 1.955,-0.4855 z m -0.255,-3.349 -2.38,2.244 -2.346,-2.21 0.68,-0.748 1.7,1.445 1.7,-1.445 0.646,0.714 z"
           style="fill:#324986;fill-opacity:1;fill-rule:evenodd;stroke:none"
           id="path5566"
           inkscape:connector-curvature="0" />
        <path
           d="m 170.355,82.6828 c 0,0.273 -0.0988,0.5057 -0.2975,0.698 -0.1976,0.1934 -0.4388,0.289 -0.7225,0.289 -0.2826,0 -0.5238,-0.0935 -0.7225,-0.2805 -0.1976,-0.187 -0.2975,-0.4218 -0.2975,-0.7055 0,-0.2826 0.0999,-0.5206 0.2975,-0.714 0.1987,-0.1923 0.4399,-0.289 0.7225,-0.289 0.2837,0 0.5249,0.0967 0.7225,0.289 0.1987,0.1934 0.2975,0.4304 0.2975,0.713 z m -0.255,11.118 -1.53,0 0,-7.242 c -0.4643,-0.0786 -0.9573,-0.135 -1.479,-0.17 l 0,-0.918 c 1.0657,-0.1233 2.0687,-0.1636 3.009,-0.119 l 0,8.449 z"
           style="fill:#324986;fill-opacity:1;fill-rule:evenodd;stroke:none"
           id="path5568"
           inkscape:connector-curvature="0" />
        <path
           d="m 180.659,93.6818 c -1.0763,0.1254 -2.0506,0.1647 -2.924,0.119 0,-0.8033 0.0287,-1.3643 0.085,-1.683 l -0.034,0 c -0.2146,0.5334 -0.578,0.9732 -1.088,1.3185 -0.51,0.3464 -1.105,0.5175 -1.785,0.5175 -0.7023,0 -1.2686,-0.1998 -1.7,-0.6025 -0.4303,-0.4016 -0.646,-0.9435 -0.646,-1.6245 0,-0.917 0.4505,-1.6395 1.3515,-2.1665 0.901,-0.527 2.1452,-0.7905 3.7315,-0.7915 l 0,-0.561 c 0,-0.611 -0.1413,-1.0636 -0.425,-1.359 -0.2826,-0.2943 -0.7586,-0.442 -1.428,-0.443 -0.9063,0.001 -1.7393,0.2104 -2.499,0.629 l -0.255,-1.275 c 0.9977,-0.3846 1.989,-0.577 2.975,-0.578 1.1677,0.001 1.9869,0.2454 2.4565,0.732 0.4707,0.4877 0.7055,1.1847 0.7055,2.09 l 0,4.59 c 0.4654,0.0807 0.9584,0.137 1.479,0.17 l 0,0.918 z m -3.009,-3.621 0,-0.221 c -2.38,0.001 -3.57,0.545 -3.57,1.632 0,0.375 0.1169,0.681 0.3485,0.919 0.2327,0.238 0.5419,0.357 0.9265,0.356 0.6577,0.001 1.2049,-0.271 1.6405,-0.815 0.4367,-0.544 0.6545,-1.1676 0.6545,-1.871 z"
           style="fill:#324986;fill-opacity:1;fill-rule:evenodd;stroke:none"
           id="path5570"
           inkscape:connector-curvature="0" />
        <path
           d="m 190.691,93.6818 c -1.0646,0.1254 -2.0506,0.1647 -2.958,0.119 0,-0.7013 0.0457,-1.274 0.136,-1.717 l -0.034,-0.017 c -0.238,0.579 -0.6056,1.038 -1.105,1.378 -0.4983,0.34 -1.0763,0.509 -1.734,0.509 -1.02,0 -1.7935,-0.3475 -2.3205,-1.0445 -0.527,-0.697 -0.7905,-1.6745 -0.7905,-2.9335 0,-1.4726 0.3942,-2.6308 1.1815,-3.4755 0.7884,-0.8436 1.8509,-1.2665 3.1875,-1.2675 0.3857,0.001 0.8617,0.0297 1.428,0.085 l 0,-2.72 c -0.4643,-0.0786 -0.9573,-0.135 -1.479,-0.17 l 0,-0.918 c 1.0657,-0.1233 2.0687,-0.1636 3.009,-0.119 l 0,11.203 c 0.4654,0.0807 0.9584,0.137 1.479,0.17 l 0,0.918 z m -3.009,-4.25 0,-2.805 c -0.5323,-0.1233 -1.0306,-0.186 -1.496,-0.187 -1.7903,10e-4 -2.686,1.1347 -2.686,3.4 0,1.905 0.6237,2.857 1.87,2.856 0.714,10e-4 1.2782,-0.3358 1.6915,-1.0105 0.4144,-0.6736 0.6205,-1.4248 0.6205,-2.2535 z"
           style="fill:#324986;fill-opacity:1;fill-rule:evenodd;stroke:none"
           id="path5572"
           inkscape:connector-curvature="0" />
        <path
           d="m 199.346,85.3518 -3.23,8.449 -1.581,0 -3.179,-8.449 1.717,0 1.785,5.032 c 0.2157,0.6247 0.3804,1.157 0.493,1.598 l 0.034,0 c 0.1254,-0.4633 0.2837,-0.9796 0.476,-1.547 l 1.836,-5.083 1.649,0 z"
           style="fill:#324986;fill-opacity:1;fill-rule:evenodd;stroke:none"
           id="path5574"
           inkscape:connector-curvature="0" />
        <path
           d="m 208.596,93.6818 c -1.0763,0.1254 -2.0506,0.1647 -2.924,0.119 0,-0.8033 0.0287,-1.3643 0.085,-1.683 l -0.034,0 c -0.2146,0.5334 -0.578,0.9732 -1.088,1.3185 -0.51,0.3464 -1.105,0.5175 -1.785,0.5175 -0.7023,0 -1.2686,-0.1998 -1.7,-0.6025 -0.4303,-0.4016 -0.646,-0.9435 -0.646,-1.6245 0,-0.917 0.4505,-1.6395 1.3515,-2.1665 0.901,-0.527 2.1452,-0.7905 3.7315,-0.7915 l 0,-0.561 c 0,-0.611 -0.1413,-1.0636 -0.425,-1.359 -0.2826,-0.2943 -0.7586,-0.442 -1.428,-0.443 -0.9063,0.001 -1.7393,0.2104 -2.499,0.629 l -0.255,-1.275 c 0.9977,-0.3846 1.989,-0.577 2.975,-0.578 1.1677,0.001 1.9869,0.2454 2.4565,0.732 0.4707,0.4877 0.7055,1.1847 0.7055,2.09 l 0,4.59 c 0.4654,0.0807 0.9584,0.137 1.479,0.17 l 0,0.918 z m -3.009,-3.621 0,-0.221 c -2.38,0.001 -3.57,0.545 -3.57,1.632 0,0.375 0.1169,0.681 0.3485,0.919 0.2327,0.238 0.5419,0.357 0.9265,0.356 0.6577,0.001 1.2049,-0.271 1.6405,-0.815 0.4367,-0.544 0.6545,-1.1676 0.6545,-1.871 z"
           style="fill:#324986;fill-opacity:1;fill-rule:evenodd;stroke:none"
           id="path5576"
           inkscape:connector-curvature="0" />
        <path
           d="m 216.044,93.4778 c -0.7586,0.307 -1.598,0.459 -2.516,0.459 -1.122,0 -2.0198,-0.3156 -2.6945,-0.951 -0.6736,-0.6343 -1.0115,-1.6776 -1.0115,-3.129 0,-1.4046 0.3549,-2.5288 1.0625,-3.3735 0.7087,-0.8436 1.7255,-1.2665 3.0515,-1.2675 0.7597,0.001 1.4514,0.12 2.074,0.357 l -0.289,1.309 c -0.6226,-0.2593 -1.2633,-0.39 -1.921,-0.391 -0.748,0.001 -1.3281,0.29 -1.7425,0.868 -0.4133,0.578 -0.6205,1.343 -0.6205,2.294 0,1.973 0.799,2.959 2.397,2.958 0.7374,0.001 1.394,-0.135 1.972,-0.408 l 0.238,1.275 z"
           style="fill:#324986;fill-opacity:1;fill-rule:evenodd;stroke:none"
           id="path5578"
           inkscape:connector-curvature="0" />
        <path
           d="m 220.177,93.8008 -1.53,0 0,-7.242 c -0.4643,-0.0786 -0.9573,-0.135 -1.479,-0.17 l 0,-0.918 c 1.0657,-0.1233 2.0687,-0.1636 3.009,-0.119 l 0,8.449 z m 0.816,-11.628 -2.55,1.938 -0.663,-0.816 2.38,-2.142 0.833,1.02 z"
           style="fill:#324986;fill-opacity:1;fill-rule:evenodd;stroke:none"
           id="path5580"
           inkscape:connector-curvature="0" />
        <path
           d="m 227.608,93.7498 c -0.5206,0.1254 -1.088,0.187 -1.7,0.187 -0.85,0 -1.4386,-0.1881 -1.768,-0.5685 -0.3283,-0.3793 -0.493,-1.0338 -0.493,-1.9645 l 0,-4.862 -1.734,0 0,-1.19 1.734,0 0,-2.737 1.53,-0.425 0,3.162 2.363,0 0,1.19 -2.363,0 0,4.318 c 0,0.6927 0.085,1.1602 0.255,1.4035 0.17,0.2444 0.4877,0.3655 0.952,0.3645 0.3857,0.001 0.7427,-0.0446 1.071,-0.136 l 0.153,1.258 z"
           style="fill:#324986;fill-opacity:1;fill-rule:evenodd;stroke:none"
           id="path5582"
           inkscape:connector-curvature="0" />
        <path
           d="m 236.603,93.8008 -1.972,0 -3.128,-4.352 0,4.352 -1.53,0 0,-11.203 c -0.4643,-0.0786 -0.9573,-0.135 -1.479,-0.17 l 0,-0.918 c 1.0657,-0.1233 2.0687,-0.1636 3.009,-0.119 l 0,7.667 2.975,-3.706 1.87,0 -3.247,3.859 3.502,4.59 z"
           style="fill:#324986;fill-opacity:1;fill-rule:evenodd;stroke:none"
           id="path5584"
           inkscape:connector-curvature="0" />
        <path
           d="m 246.04,93.6818 c -1.0763,0.1254 -2.0506,0.1647 -2.924,0.119 0,-0.8033 0.0287,-1.3643 0.085,-1.683 l -0.034,0 c -0.2146,0.5334 -0.578,0.9732 -1.088,1.3185 -0.51,0.3464 -1.105,0.5175 -1.785,0.5175 -0.7023,0 -1.2686,-0.1998 -1.7,-0.6025 -0.4303,-0.4016 -0.646,-0.9435 -0.646,-1.6245 0,-0.917 0.4505,-1.6395 1.3515,-2.1665 0.901,-0.527 2.1452,-0.7905 3.7315,-0.7915 l 0,-0.561 c 0,-0.611 -0.1413,-1.0636 -0.425,-1.359 -0.2826,-0.2943 -0.7586,-0.442 -1.428,-0.443 -0.9063,0.001 -1.7393,0.2104 -2.499,0.629 l -0.255,-1.275 c 0.9977,-0.3846 1.989,-0.577 2.975,-0.578 1.1677,0.001 1.9869,0.2454 2.4565,0.732 0.4707,0.4877 0.7055,1.1847 0.7055,2.09 l 0,4.59 c 0.4654,0.0807 0.9584,0.137 1.479,0.17 l 0,0.918 z m -3.009,-3.621 0,-0.221 c -2.38,0.001 -3.57,0.545 -3.57,1.632 0,0.375 0.1169,0.681 0.3485,0.919 0.2327,0.238 0.5419,0.357 0.9265,0.356 0.6577,0.001 1.2049,-0.271 1.6405,-0.815 0.4367,-0.544 0.6545,-1.1676 0.6545,-1.871 z"
           style="fill:#324986;fill-opacity:1;fill-rule:evenodd;stroke:none"
           id="path5586"
           inkscape:connector-curvature="0" />
      </g>
    </g>
  </g>
</svg>
